<svg width="500" height="400" viewBox="0 0 500 400" fill="none" xmlns="http://www.w3.org/2000/svg">
  <!-- 富士山 -->
  <path d="M250 150 L150 300 L350 300 Z" fill="#E6E6FA" stroke="#9370DB" stroke-width="2"/>
  
  <!-- 日の出 -->
  <circle cx="250" cy="100" r="40" fill="#FF6347" />
  <circle cx="250" cy="100" r="50" fill="none" stroke="#FF6347" stroke-width="2" stroke-dasharray="5,5" />
  <circle cx="250" cy="100" r="60" fill="none" stroke="#FF6347" stroke-width="1" stroke-dasharray="3,3" />
  
  <!-- 桜の木 -->
  <line x1="150" y1="300" x2="150" y2="250" stroke="#8B4513" stroke-width="6" />
  <circle cx="130" cy="240" r="15" fill="#FFB6C1" />
  <circle cx="150" cy="230" r="15" fill="#FFB6C1" />
  <circle cx="170" cy="240" r="15" fill="#FFB6C1" />
  <circle cx="140" cy="215" r="15" fill="#FFB6C1" />
  <circle cx="160" cy="215" r="15" fill="#FFB6C1" />
  
  <!-- 鳥居 -->
  <line x1="320" y1="300" x2="320" y2="250" stroke="#FF4500" stroke-width="6" />
  <line x1="350" y1="300" x2="350" y2="250" stroke="#FF4500" stroke-width="6" />
  <line x1="310" y1="250" x2="360" y2="250" stroke="#FF4500" stroke-width="8" />
  <line x1="305" y1="260" x2="365" y2="260" stroke="#FF4500" stroke-width="5" />
  
  <!-- 波のパターン -->
  <path d="M50 320 Q75 300 100 320 Q125 340 150 320 Q175 300 200 320 Q225 340 250 320 Q275 300 300 320 Q325 340 350 320 Q375 300 400 320 Q425 340 450 320" stroke="#4169E1" stroke-width="3" fill="none" />
  <path d="M50 340 Q75 320 100 340 Q125 360 150 340 Q175 320 200 340 Q225 360 250 340 Q275 320 300 340 Q325 360 350 340 Q375 320 400 340 Q425 360 450 340" stroke="#4169E1" stroke-width="3" fill="none" />

  <!-- 日本語の「和」の文字 -->
  <g transform="translate(400, 50) scale(0.7)">
    <rect x="0" y="0" width="60" height="60" rx="5" fill="#FFF" stroke="#FF0000" stroke-width="2" />
    <path d="M10 15 H50 M30 15 V55 M10 35 H50" stroke="#FF0000" stroke-width="3" stroke-linecap="round" />
  </g>
</svg> 